Simulation
nRows=44
nColumns=15
endheader
time  TH_x TH_y TH_z SC_y  SC_z  SC_x  AC_y  AC_z  AC_x  GH_y  GH_z  GH_yy  EL_x  PS_y
5.745  0.000000  0.000000  0.000000  -49.775685466604976  19.015930062006902  37.16851030799093  70.54895694684619  -8.939150868090755  23.003948883137195  -4.581596954968368  59.6863806062154  -17.080484210965608  18.475088163104374  120.000000
5.80245  0.000000  0.000000  0.000000  -48.423249497962786  17.78585767457551  32.99684858345216  70.96743698442513  -8.74373152779017  23.192173318459268  -4.962865376426207  59.55969929768431  -16.365834680752553  18.765489323026138  120.000000
5.8599  0.000000  0.000000  0.000000  -46.87041704247871  16.09462335209141  28.020224291557277  71.29831955684571  -8.510387875164573  23.449947757122466  -5.567249949489407  59.33919999692938  -15.080137116259431  19.149263406320816  120.000000
5.91735  0.000000  0.000000  0.000000  -45.25169567807153  13.912877868875034  22.49863676886416  71.40284608194494  -8.306093951138525  23.714317956145074  -6.386215609471665  59.06079554095759  -13.197188138232672  19.541196301201627  120.000000
5.9748  0.000000  0.000000  0.000000  -43.707471773243505  11.265860279653266  16.73236454010512  71.15557381939773  -8.207136662437735  23.909851186899346  -7.369749970893688  58.759260190520784  -10.764973905662329  19.84034426639681  120.000000
6.03225  0.000000  0.000000  0.000000  -42.32814948882181  8.23636105054706  11.042362335194367  70.48326027774911  -8.277787683551185  23.96476169192426  -8.445613129718906  58.445893751412775  -7.913961650528612  19.960746709302576  120.000000
6.089700000000001  0.000000  0.000000  0.000000  -41.09792399881299  4.960271131359429  5.746348023681053  69.39589783146008  -8.554092446142763  23.819376618467608  -9.562250751408326  58.08040596142896  -4.833060246200238  19.85275540145445  120.000000
6.14715  0.000000  0.000000  0.000000  -39.91015817869556  1.617189629546224  1.1385615330996297  67.97088116988395  -9.044348872933451  23.427335003198962  -10.72651424050934  57.54626030720567  -1.717789809842561  19.503282007208966  120.000000
6.2046  0.000000  0.000000  0.000000  -38.64630292359536  -1.5639153235143857  -2.5369129289191257  66.31698892373497  -9.73384113856336  22.756330049319967  -11.959770066681482  56.67542468809424  1.2628364493265547  18.92336746385072  120.000000
6.26205  0.000000  0.000000  0.000000  -37.30546114856611  -4.3076786945294145  -5.119612948081669  64.56049196209669  -10.581464684754504  21.80748514463199  -13.168736709163216  55.30133557204519  3.961718234171531  18.16566503900842  120.000000
6.3195  0.000000  0.000000  0.000000  -36.05059344303742  -6.357137193648663  -6.5656159255260205  62.84525588300449  -11.52632249927293  20.617378928000587  -14.105217461557935  53.32331735344478  6.251277260057785  17.33237163496957  120.000000
6.37695  0.000000  0.000000  0.000000  -35.0728383085776  -7.559865854943965  -6.937053004955016  61.30163339181813  -12.517317788622266  19.238152494336333  -14.525675146309634  50.73739508379496  8.06741216942126  16.546716177432558  120.000000
6.4344  0.000000  0.000000  0.000000  -34.455565598652676  -7.900437258576595  -6.375242851974832  59.981293762741586  -13.511240723264587  17.725852684981366  -14.338608453058294  47.59945652053182  9.428570291259966  15.894628254902287  120.000000
6.49185  0.000000  0.000000  0.000000  -34.146877349592515  -7.517456593105613  -5.115167761812839  58.83450070170587  -14.364329246775384  16.068725772528797  -13.546207820137655  43.96004357728465  10.36847101993518  15.406898770685386  120.000000
6.549300000000001  0.000000  0.000000  0.000000  -34.05109728452143  -6.640439209548706  -3.474939140992545  57.769719383374024  -14.815707597054724  14.214345408397307  -12.086840139376138  39.84580408936959  10.843138375864449  15.12148234087763  120.000000
6.60675  0.000000  0.000000  0.000000  -34.07216660519683  -5.494157194400498  -1.7869362829098159  56.708648754958  -14.644717035646215  12.18085990864683  -9.791709704143084  35.32895233742369  10.69135082489278  15.062980389333374  120.000000
6.6642  0.000000  0.000000  0.000000  -34.15193505926544  -4.239624423402148  -0.34159805623559986  55.592597100081505  -13.77593749256865  10.087093071800929  -6.411574313586346  30.566138517686362  9.6498280477823  15.226400139678384  120.000000
6.72165  0.000000  0.000000  0.000000  -34.30770094659413  -2.9930929935279083  0.6386446802008418  54.37949166878825  -12.259399855358325  8.084674284197481  -1.6139214155537291  25.799566898954282  7.359953808589991  15.580661713267387  120.000000
6.7791  0.000000  0.000000  0.000000  -34.58772285013723  -1.885142232462941  1.0259258963120057  53.04695028612876  -10.210443675982656  6.276323221307484  4.996603539281635  21.342599515955868  3.3899048901139994  16.05560336889321  120.000000
6.83655  0.000000  0.000000  0.000000  -35.03122368009217  -0.9937055089156571  0.8114735217266262  51.61248497287262  -7.784221741463791  4.7290330020399765  13.790302042969081  17.500785164406235  -2.67387047891084  16.56335708918441  120.000000
6.894  0.000000  0.000000  0.000000  -35.63335432521346  -0.33485061696458074  0.11870136013104994  50.132400026042475  -5.16591689562878  3.4739145261447737  24.92595107067101  14.49872934739667  -11.03780207246018  17.012593690242134  120.000000
6.95145  0.000000  0.000000  0.000000  -36.374112167705775  0.10256153950948878  -0.8683032796202466  48.67744254141541  -2.5306163629168545  2.5223601002910248  38.05468081784236  12.434628340380984  -21.399061040450903  17.33120041856259  120.000000
7.008900000000001  0.000000  0.000000  0.000000  -37.22482717206566  0.36256591570235686  -2.0038637403000674  47.299377605295234  0.014047699335352019  1.8646163511129772  52.01431656781872  11.249012425022906  -32.650574255557224  17.48080147888701  120.000000
7.06635  0.000000  0.000000  0.000000  -38.14407894165471  0.5064508289450065  -3.1809900898863193  46.033227140903854  2.4073601157421898  1.4538221306071735  65.2407786738218  10.7518325938207  -43.301422302618356  17.472182139583644  120.000000
7.1238  0.000000  0.000000  0.000000  -39.095406569246606  0.5860884668692704  -4.30986779059619  44.89835864328712  4.59288829040516  1.2391977860712518  76.66446614498098  10.706062885506327  -52.36565173703688  17.368928855974044  120.000000
7.18125  0.000000  0.000000  0.000000  -40.05454887964647  0.6306050993385242  -5.3236450683671634  43.9058106376085  6.526291851279647  1.1768438506345618  85.97719220319799  10.90620483406227  -59.616818181874045  17.257609115854546  120.000000
7.2387  0.000000  0.000000  0.000000  -41.00017221812332  0.664237697636262  -6.181016974608042  43.076475589704046  8.182664701759757  1.2222873331166562  93.34548102807669  11.209999600480867  -65.2845715013173  17.213777781562943  120.000000
7.29615  0.000000  0.000000  0.000000  -41.90799519779985  0.7075123451268507  -6.858994544365629  42.43473474353073  9.55451895167121  1.3343036367905845  99.0913126040631  11.524073256237186  -69.7222723506161  17.273708584989134  120.000000
7.3536  0.000000  0.000000  0.000000  -42.75002427916778  0.7758888060910809  -7.346247466679323  41.996639030385566  10.646383701429649  1.478757816358715  103.54523185272248  11.787089611057747  -73.2540335703006  17.429393180384523  120.000000
7.41105  0.000000  0.000000  0.000000  -43.496732450880614  0.8772739502407695  -7.639134075458749  41.75847151925394  11.470939365821978  1.6299894805624293  107.00229361526968  11.960390559347978  -76.1335979523944  17.64571081754946  120.000000
7.468500000000001  0.000000  0.000000  0.000000  -44.128731587359184  1.0098531007623643  -7.739852189087602  41.687081846707386  12.045134361027506  1.7707175275884606  109.70922756212163  12.02518325977952  -78.54321217997108  17.882540614671377  120.000000
7.52595  0.000000  0.000000  0.000000  -44.641608385291654  1.1671335080975613  -7.658648995150388  41.727333555990214  12.388656890977426  1.886903182688551  111.85950255269077  11.982169047851809  -80.60339784727788  18.112456690644603  120.000000
7.5834  0.000000  0.000000  0.000000  -45.03949335733043  1.3502386894372924  -7.417259728638125  41.831515418468314  12.523328705477796  1.963014852148782  113.58320383412804  11.852078070394079  -82.37742149568808  18.328493286181608  120.000000
7.64085  0.000000  0.000000  0.000000  -45.33467373944911  1.5620780455072507  -7.044579003985043  41.967563872511185  12.474549371627566  1.9844475071842211  114.95369558536092  11.665301489474116  -83.89102865520854  18.536566501044106  120.000000
7.6983  0.000000  0.000000  0.000000  -45.546237246393176  1.7992945559676075  -6.568594160495996  42.112117267438364  12.271495646534595  1.9423122283820513  116.02530520335405  11.443674245251128  -85.16834207270264  18.743942426324285  120.000000
7.75575  0.000000  0.000000  0.000000  -45.69349387093259  2.0545961870625216  -6.01272344035129  42.25062977029902  11.943211942866466  1.8370714356945228  116.86285640949392  11.19690434162711  -86.2562100812453  18.953583503605124  120.000000
7.8132  0.000000  0.000000  0.000000  -45.79568936055156  2.319814932687118  -5.39614522011282  42.38028371577642  11.51475927739058  1.6781792709371188  117.52530417682233  10.927688570182832  -87.20420500338616  19.16321958486336  120.000000
7.87065  0.000000  0.000000  0.000000  -45.87028725485474  2.589356801640187  -4.736471963106205  42.50955466891689  11.006484989929149  1.4800552426991311  118.0469974853389  10.636583581869411  -88.04322764754465  19.367885964251823  120.000000
7.928100000000001  0.000000  0.000000  0.000000  -45.930077950844364  2.855698075442091  -4.051769821023534  42.65374655883699  10.433799352558344  1.2598898862355146  118.4311501359394  10.325845557296931  -88.77548195153074  19.564422546167876  120.000000
7.98555  0.000000  0.000000  0.000000  -45.977655179660665  3.103894649824811  -3.3619715625748876  42.828726863588464  9.808455150506118  1.035914799111357  118.66046500402572  10.002194213255933  -89.38072664211866  19.75714977433287  120.000000
8.043  0.000000  0.000000  0.000000  -46.00424995675258  3.312912490781339  -2.6901020302827665  43.04278812941007  9.141346121925267  0.8247590248546272  118.70395123670635  9.673584397248367  -89.82041197304319  19.959765206439943  120.000000
8.10045  0.000000  0.000000  0.000000  -45.995248382272784  3.4638400594534233  -2.062250280033627  43.28466139189232  8.449312898404669  0.6341639851215884  118.51352483526846  9.33674470427492  -90.03582858335585  20.189240137119377  120.000000
8.1579  0.000000  0.000000  0.000000  -45.93717069500648  3.5536742701755966  -1.5042715481016675  43.51867058816746  7.7595779313073345  0.44963308991531536  117.99478045629904  8.967185957684109  -89.92687227483877  20.452872869164384  120.000000
8.21535  0.000000  0.000000  0.000000  -45.816531080295775  3.5899968501314845  -1.0465417556184615  43.689708467810874  7.109245734209994  0.2388899296822034  116.97156409418254  8.528034243185706  -89.325467598085  20.735590708413408  120.000000
